<svg width="187" height="74" viewBox="0 0 187 74" fill="none" xmlns="http://www.w3.org/2000/svg">
<g clip-path="url(#clip0_178_350)">
<mask id="mask0_178_350" style="mask-type:luminance" maskUnits="userSpaceOnUse" x="0" y="0" width="187" height="74">
<path d="M187 0.023241H0.078125V73.9225H187V0.023241Z" fill="white"/>
</mask>
<g mask="url(#mask0_178_350)">
<mask id="mask1_178_350" style="mask-type:luminance" maskUnits="userSpaceOnUse" x="0" y="0" width="187" height="74">
<path d="M172.295 0.023241H14.7284C6.63728 0.023241 0.078125 6.52664 0.078125 14.549V59.3968C0.078125 67.4191 6.63728 73.9225 14.7284 73.9225H172.295C180.386 73.9225 186.945 67.4191 186.945 59.3968V14.549C186.945 6.52664 180.386 0.023241 172.295 0.023241Z" fill="white"/>
</mask>
<g mask="url(#mask1_178_350)">
<mask id="mask2_178_350" style="mask-type:luminance" maskUnits="userSpaceOnUse" x="0" y="0" width="187" height="74">
<path d="M186.961 0H0V74H186.961V0Z" fill="white"/>
</mask>
<g mask="url(#mask2_178_350)">
<path d="M187 0.023241H0.078125V73.9225H187V0.023241Z" fill="#F99F1B"/>
</g>
</g>
</g>
<mask id="mask3_178_350" style="mask-type:luminance" maskUnits="userSpaceOnUse" x="105" y="0" width="73" height="72">
<path d="M177.858 0.023241H105.779V71.49H177.858V0.023241Z" fill="white"/>
</mask>
<g mask="url(#mask3_178_350)">
<path d="M145.8 27.3626C145.8 27.843 145.776 28.3155 145.729 28.7881C145.682 29.2607 145.612 29.7332 145.518 30.1981C145.425 30.6629 145.307 31.1277 145.167 31.5848C145.026 32.0419 144.862 32.4912 144.682 32.9328C144.495 33.3744 144.292 33.8005 144.065 34.2265C143.838 34.6449 143.588 35.0555 143.323 35.4506C143.057 35.8457 142.768 36.2253 142.463 36.5972C142.159 36.969 141.838 37.3176 141.494 37.6585C141.151 37.9994 140.799 38.317 140.424 38.6191C140.049 38.9213 139.666 39.2079 139.268 39.4713C138.869 39.7347 138.455 39.9826 138.033 40.2073C137.611 40.432 137.174 40.6334 136.728 40.8193C136.283 41.0052 135.83 41.1602 135.369 41.2996C134.908 41.4391 134.447 41.5553 133.97 41.6482C133.501 41.7412 133.025 41.8109 132.548 41.8574C132.071 41.9039 131.587 41.9271 131.11 41.9271C130.634 41.9271 130.149 41.9039 129.673 41.8574C129.196 41.8109 128.719 41.7412 128.251 41.6482C127.782 41.5553 127.313 41.4391 126.852 41.2996C126.391 41.1602 125.938 40.9975 125.492 40.8193C125.047 40.6334 124.617 40.432 124.187 40.2073C123.766 39.9826 123.351 39.7347 122.953 39.4713C122.554 39.2079 122.172 38.9213 121.797 38.6191C121.422 38.317 121.07 37.9994 120.726 37.6585C120.382 37.3176 120.062 36.969 119.757 36.5972C119.453 36.2253 119.163 35.8457 118.898 35.4506C118.632 35.0555 118.382 34.6449 118.155 34.2265C117.929 33.8082 117.726 33.3744 117.538 32.9328C117.351 32.4912 117.194 32.0419 117.054 31.5848C116.913 31.1277 116.796 30.6706 116.702 30.1981C116.608 29.7332 116.538 29.2607 116.491 28.7881C116.444 28.3155 116.421 27.8352 116.421 27.3626C116.421 26.8901 116.444 26.4098 116.491 25.9372C116.538 25.4646 116.608 24.992 116.702 24.5272C116.796 24.0624 116.913 23.5976 117.054 23.1405C117.194 22.6834 117.359 22.2341 117.538 21.7925C117.718 21.3509 117.929 20.9248 118.155 20.4987C118.382 20.0804 118.632 19.6698 118.898 19.2747C119.163 18.8796 119.453 18.5 119.757 18.1281C120.062 17.7563 120.382 17.4077 120.726 17.0668C121.07 16.7259 121.422 16.4083 121.797 16.1062C122.172 15.804 122.554 15.5174 122.953 15.254C123.351 14.9906 123.766 14.7427 124.187 14.518C124.609 14.2933 125.047 14.0919 125.492 13.906C125.938 13.7201 126.391 13.5651 126.852 13.4257C127.313 13.2862 127.774 13.17 128.251 13.0771C128.719 12.9841 129.196 12.9144 129.673 12.8679C130.149 12.8214 130.634 12.7982 131.11 12.7982C131.587 12.7982 132.071 12.8214 132.548 12.8679C133.025 12.9144 133.501 12.9841 133.97 13.0771C134.439 13.17 134.908 13.2862 135.369 13.4257C135.83 13.5651 136.283 13.7278 136.728 13.906C137.174 14.0919 137.603 14.2933 138.033 14.518C138.455 14.7427 138.869 14.9906 139.268 15.254C139.666 15.5174 140.049 15.804 140.424 16.1062C140.799 16.4083 141.151 16.7259 141.494 17.0668C141.838 17.4077 142.159 17.7563 142.463 18.1281C142.768 18.5 143.057 18.8796 143.323 19.2747C143.588 19.6698 143.838 20.0804 144.065 20.4987C144.292 20.9171 144.495 21.3509 144.682 21.7925C144.87 22.2341 145.026 22.6834 145.167 23.1405C145.307 23.5976 145.425 24.0546 145.518 24.5272C145.612 24.9998 145.682 25.4646 145.729 25.9372C145.776 26.4098 145.8 26.8901 145.8 27.3626Z" fill="#F8EEE5"/>
</g>
<mask id="mask4_178_350" style="mask-type:luminance" maskUnits="userSpaceOnUse" x="105" y="0" width="73" height="72">
<path d="M177.694 0.023241H105.615V71.49H177.694V0.023241Z" fill="white"/>
</mask>
<g mask="url(#mask4_178_350)">
<path d="M114.444 21.777H125.555C125.734 21.777 126.063 21.7228 126.141 21.5214C126.211 21.3432 126.078 21.2192 125.891 21.2192H114.78C114.6 21.2192 114.272 21.2735 114.194 21.4749C114.124 21.6531 114.256 21.777 114.444 21.777Z" fill="#46544A"/>
<path d="M136.4 10.2726C129.688 22.5362 122.976 34.7998 116.272 47.0634L136.4 10.2726Z" fill="#46544A"/>
<path d="M135.955 10.3423C129.243 22.6059 122.531 34.8696 115.827 47.1332C115.741 47.2881 116.577 47.2261 116.71 46.9937C123.422 34.7301 130.133 22.4665 136.837 10.2029C136.923 10.0479 136.087 10.1099 135.962 10.3423H135.955Z" fill="#46544A"/>
<path d="M140.666 7.15055C141.463 10.2029 142.268 13.263 143.065 16.3153L140.666 7.15055Z" fill="#46544A"/>
<path d="M140.229 7.2745C141.033 10.3268 141.83 13.3869 142.627 16.4393C142.698 16.7104 143.588 16.478 143.518 16.2069C142.721 13.1545 141.916 10.0944 141.119 7.04209C141.049 6.77094 140.158 7.00335 140.229 7.2745Z" fill="#46544A"/>
<path d="M132.634 36.5119C133.439 46.6838 134.236 56.848 135.04 67.0199L132.634 36.5119Z" fill="#46544A"/>
<path d="M135.509 67.2523C134.697 56.9642 133.892 46.6838 133.079 36.3957C133.056 36.0626 132.165 36.264 132.188 36.6281L134.595 67.1748C134.79 67.1981 135.447 67.2446 135.509 67.2523Z" fill="#46544A"/>
<path d="M173.928 22.7531C160.559 23.706 147.19 24.6589 133.821 25.6118L173.928 22.7531Z" fill="#46544A"/>
<path d="M174.108 22.5285C160.739 23.4814 147.37 24.4343 134.001 25.3871C133.704 25.4104 133.056 25.8752 133.642 25.8365C147.011 24.8836 160.38 23.9307 173.748 22.9778C174.038 22.9546 174.694 22.4897 174.108 22.5285Z" fill="#46544A"/>
<path d="M157.105 44.2125C148.409 39.5875 139.713 34.9548 131.016 30.3298L157.105 44.2125Z" fill="#46544A"/>
<path d="M157.449 43.9801C148.753 39.3551 140.056 34.7224 131.36 30.0974C131.063 29.9347 130.258 30.353 130.665 30.5699C139.361 35.1949 148.057 39.8277 156.754 44.4527C157.051 44.6154 157.855 44.197 157.449 43.9801Z" fill="#46544A"/>
<path d="M129.711 45.5373C127.156 45.4288 124.594 45.3281 122.039 45.2196L129.711 45.5373Z" fill="#46544A"/>
<path d="M129.884 45.2971C127.329 45.1887 124.766 45.0879 122.211 44.9795C122.039 44.9795 121.711 45.0415 121.625 45.2119C121.531 45.3901 121.703 45.4443 121.859 45.4521C124.414 45.5605 126.977 45.6612 129.532 45.7697C129.704 45.7697 130.032 45.7077 130.118 45.5373C130.212 45.3591 130.04 45.3049 129.884 45.2971Z" fill="#46544A"/>
</g>
<mask id="mask5_178_350" style="mask-type:luminance" maskUnits="userSpaceOnUse" x="14" y="20" width="98" height="30">
<path d="M111.624 20.2353H14.3457V49.2869H111.624V20.2353Z" fill="white"/>
</mask>
<g mask="url(#mask5_178_350)">
<path d="M41.4348 22.3968V27.045H32.6915V46.5444H24.8546V27.045H16.2051V22.4045H41.4348V22.3968Z" fill="#231F20"/>
<path d="M63.2578 27.045V32.0961H74.142V36.4964H63.2578V41.8574H75.5093V46.5444H55.4678V22.4045H75.5093V27.045H63.2578Z" fill="#231F20"/>
<path d="M97.8717 37.6972L93.8634 28.8191L89.8082 37.6972H97.8717ZM99.8719 42.1363H87.8001L85.7999 46.5444H77.6035L89.4019 22.575H98.3717L110.17 46.5444H101.88L99.8797 42.1363H99.8719Z" fill="#231F20"/>
<path d="M47.4823 40.7341H40.7393V46.5831H47.4823V40.7341Z" fill="#231F20"/>
</g>
</g>
<defs>
<clipPath id="clip0_178_350">
<rect width="187" height="74" fill="white"/>
</clipPath>
</defs>
</svg>
